HIERARCHY
ROOT hip
{
OFFSET -0.17 105.68 3.47
CHANNELS 6 Xposition Yposition Zposition Zrotation Xrotation Yrotation
JOINT abdomen
{
OFFSET -0.08 7.23 0
CHANNELS 6 Xposition Yposition Zposition Zrotation Xrotation Yrotation
JOINT chest
{
OFFSET 0 16.55 -0
CHANNELS 6 Xposition Yposition Zposition Zrotation Xrotation Yrotation
JOINT neck
{
OFFSET 0 34.21 -0
CHANNELS 6 Xposition Yposition Zposition Zrotation Xrotation Yrotation
JOINT head
{
OFFSET 0 6.29 0
CHANNELS 6 Xposition Yposition Zposition Zrotation Xrotation Yrotation
End Site
{
OFFSET 0 0 0
}
}
}
JOINT lCollar
{
OFFSET 4.06 26.61 -1.12
CHANNELS 6 Xposition Yposition Zposition Zrotation Xrotation Yrotation
JOINT lShldr
{
OFFSET 14.17 0 0
CHANNELS 6 Xposition Yposition Zposition Zrotation Xrotation Yrotation
JOINT lForeArm
{
OFFSET 26.12 0 0
CHANNELS 6 Xposition Yposition Zposition Zrotation Xrotation Yrotation
JOINT lHand
{
OFFSET 27.71 0 0
CHANNELS 6 Xposition Yposition Zposition Zrotation Xrotation Yrotation
JOINT lThumb1
{
OFFSET 2.29 -0.46 1.83
CHANNELS 6 Xposition Yposition Zposition Zrotation Xrotation Yrotation
JOINT lThumb2
{
OFFSET 5.29 0 0
CHANNELS 6 Xposition Yposition Zposition Zrotation Xrotation Yrotation
JOINT lThumb3
{
OFFSET 3.01 0 0
CHANNELS 6 Xposition Yposition Zposition Zrotation Xrotation Yrotation
End Site
{
OFFSET 0 0 0
}
}
}
}
JOINT lIndex1
{
OFFSET 9.37 0.29 2.59
CHANNELS 6 Xposition Yposition Zposition Zrotation Xrotation Yrotation
JOINT lIndex2
{
OFFSET 4.34 0 0
CHANNELS 6 Xposition Yposition Zposition Zrotation Xrotation Yrotation
JOINT lIndex3
{
OFFSET 2.16 0 0
CHANNELS 6 Xposition Yposition Zposition Zrotation Xrotation Yrotation
End Site
{
OFFSET 0 0 0
}
}
}
}
JOINT lMid1
{
OFFSET 9.47 0.83 0.29
CHANNELS 6 Xposition Yposition Zposition Zrotation Xrotation Yrotation
JOINT lMid2
{
OFFSET 4.77 0 0
CHANNELS 6 Xposition Yposition Zposition Zrotation Xrotation Yrotation
JOINT lMid3
{
OFFSET 2.87 0 0
CHANNELS 6 Xposition Yposition Zposition Zrotation Xrotation Yrotation
End Site
{
OFFSET 0 0 0
}
}
}
}
JOINT lRing1
{
OFFSET 8.65 1.01 -1.70
CHANNELS 6 Xposition Yposition Zposition Zrotation Xrotation Yrotation
JOINT lRing2
{
OFFSET 4.54 0 0
CHANNELS 6 Xposition Yposition Zposition Zrotation Xrotation Yrotation
JOINT lRing3
{
OFFSET 2.50 0 0
CHANNELS 6 Xposition Yposition Zposition Zrotation Xrotation Yrotation
End Site
{
OFFSET 0 0 0
}
}
}
}
JOINT lPinky1
{
OFFSET 7.69 0.66 -3.90
CHANNELS 6 Xposition Yposition Zposition Zrotation Xrotation Yrotation
JOINT lPinky2
{
OFFSET 3.21 0 0
CHANNELS 6 Xposition Yposition Zposition Zrotation Xrotation Yrotation
JOINT lPinky3
{
OFFSET 1.92 0 0
CHANNELS 6 Xposition Yposition Zposition Zrotation Xrotation Yrotation
End Site
{
OFFSET 0 0 0
}
}
}
}
}
}
}
}
JOINT rCollar
{
OFFSET -4.06 26.61 -1.12
CHANNELS 6 Xposition Yposition Zposition Zrotation Xrotation Yrotation
JOINT rShldr
{
OFFSET -14.17 0 0
CHANNELS 6 Xposition Yposition Zposition Zrotation Xrotation Yrotation
JOINT rForeArm
{
OFFSET -26.12 0 0
CHANNELS 6 Xposition Yposition Zposition Zrotation Xrotation Yrotation
JOINT rHand
{
OFFSET -27.71 0 0
CHANNELS 6 Xposition Yposition Zposition Zrotation Xrotation Yrotation
JOINT rThumb1
{
OFFSET -2.29 -0.46 1.83
CHANNELS 6 Xposition Yposition Zposition Zrotation Xrotation Yrotation
JOINT rThumb2
{
OFFSET -5.29 0 0
CHANNELS 6 Xposition Yposition Zposition Zrotation Xrotation Yrotation
JOINT rThumb3
{
OFFSET -3.01 0 0
CHANNELS 6 Xposition Yposition Zposition Zrotation Xrotation Yrotation
End Site
{
OFFSET 0 0 0
}
}
}
}
JOINT rIndex1
{
OFFSET -9.37 0.29 2.59
CHANNELS 6 Xposition Yposition Zposition Zrotation Xrotation Yrotation
JOINT rIndex2
{
OFFSET -4.34 0 0
CHANNELS 6 Xposition Yposition Zposition Zrotation Xrotation Yrotation
JOINT rIndex3
{
OFFSET -2.16 0 0
CHANNELS 6 Xposition Yposition Zposition Zrotation Xrotation Yrotation
End Site
{
OFFSET 0 0 0
}
}
}
}
JOINT rMid1
{
OFFSET -9.47 0.83 0.29
CHANNELS 6 Xposition Yposition Zposition Zrotation Xrotation Yrotation
JOINT rMid2
{
OFFSET -4.77 0 0
CHANNELS 6 Xposition Yposition Zposition Zrotation Xrotation Yrotation
JOINT rMid3
{
OFFSET -2.87 0 0
CHANNELS 6 Xposition Yposition Zposition Zrotation Xrotation Yrotation
End Site
{
OFFSET 0 0 0
}
}
}
}
JOINT rRing1
{
OFFSET -8.65 1.01 -1.70
CHANNELS 6 Xposition Yposition Zposition Zrotation Xrotation Yrotation
JOINT rRing2
{
OFFSET -4.54 0 0
CHANNELS 6 Xposition Yposition Zposition Zrotation Xrotation Yrotation
JOINT rRing3
{
OFFSET -2.50 0 0
CHANNELS 6 Xposition Yposition Zposition Zrotation Xrotation Yrotation
End Site
{
OFFSET 0 0 0
}
}
}
}
JOINT rPinky1
{
OFFSET -7.69 0.66 -3.90
CHANNELS 6 Xposition Yposition Zposition Zrotation Xrotation Yrotation
JOINT rPinky2
{
OFFSET -3.21 0 0
CHANNELS 6 Xposition Yposition Zposition Zrotation Xrotation Yrotation
JOINT rPinky3
{
OFFSET -1.92 0 0
CHANNELS 6 Xposition Yposition Zposition Zrotation Xrotation Yrotation
End Site
{
OFFSET 0 0 0
}
}
}
}
}
}
}
}
}
}
JOINT lThigh
{
OFFSET 8.73 -0 0
CHANNELS 6 Xposition Yposition Zposition Zrotation Xrotation Yrotation
JOINT lShin
{
OFFSET 0 -46.66 0
CHANNELS 6 Xposition Yposition Zposition Zrotation Xrotation Yrotation
JOINT lFoot
{
OFFSET 0 -40.14 0
CHANNELS 6 Xposition Yposition Zposition Zrotation Xrotation Yrotation
JOINT lToes
{
OFFSET 0 -8.88 14.22
CHANNELS 6 Xposition Yposition Zposition Zrotation Xrotation Yrotation
End Site
{
OFFSET 0 0 0
}
}
}
}
}
JOINT rThigh
{
OFFSET -8.73 0 -0
CHANNELS 6 Xposition Yposition Zposition Zrotation Xrotation Yrotation
JOINT rShin
{
OFFSET 0 -46.66 0
CHANNELS 6 Xposition Yposition Zposition Zrotation Xrotation Yrotation
JOINT rFoot
{
OFFSET 0 -40.14 0
CHANNELS 6 Xposition Yposition Zposition Zrotation Xrotation Yrotation
JOINT rToes
{
OFFSET 0 -8.88 14.22
CHANNELS 6 Xposition Yposition Zposition Zrotation Xrotation Yrotation
End Site
{
OFFSET 0 0 0
}
}
}
}
}
}
MOTION
Frames: 4
Frame Time: 0.03
-8.31 64.22 144.07 -8.34 -0.37 -30.74 -0.86 7.18 -0 6.36 1.09 -0.84 0 16.55 -0 -1.73 8.06 -2.63 0 34.21 -0 0 0.56 0 0 6.29 0 14.09 3.88 32.95 4.06 26.61 -1.12 -0.34 -4.53 -3.96 14.17 0 0 -48.79 -5.31 -39.13 26.12 0 0 0 0 -68.05 27.71 0 0 15.31 4.40 38.09 2.29 -0.46 1.83 57.19 34.31 -81.43 5.29 0 0 0 0 0 3.01 0 0 0 0 0 9.37 0.29 2.59 24.22 -1.62 -3.34 4.34 0 0 0 0 0 2.16 0 0 0 0 0 9.47 0.83 0.29 16.96 14.27 7.03 4.77 0 0 0 0 0 2.87 0 0 -0 0 0 8.65 1.01 -1.70 23.79 3.43 14.82 4.54 0 0 0 0 0 2.50 0 0 0 0 0 7.69 0.66 -3.90 21.17 -7.01 16.30 3.21 0 0 0 0 0 1.92 0 0 0 0 0 -4.06 26.61 -1.12 12.71 -3.71 4.28 -14.17 0 0 43.51 24.73 45.69 -26.12 0 0 0 0 80.96 -27.71 0 0 36.65 -43.35 -16.64 -2.29 -0.46 1.83 -57.19 34.31 81.43 -5.29 0 0 0 0 0 -3.01 0 0 0 0 0 -9.37 0.29 2.59 -24.22 -1.62 3.34 -4.34 0 0 0 0 0 -2.16 0 0 -0 0 0 -9.47 0.83 0.29 -16.96 14.27 -7.03 -4.77 0 0 0 0 0 -2.87 0 0 0 0 0 -8.65 1.01 -1.70 -23.79 3.43 -14.82 -4.54 0 0 0 0 0 -2.50 0 0 -0 0 0 -7.69 0.66 -3.90 -21.17 -7.01 -16.30 -3.21 0 0 -0 0 0 -1.92 0 0 0 0 0 8.73 -0 0 67.74 -48.05 52.15 0 -46.66 0 180 79.33 -180 0 -40.14 0 1.60 4.91 -10.04 0 -8.88 14.22 0 0 0 -8.73 0 -0 14.32 -5.68 37.56 0 -46.66 0 0 18.59 0 0 -40.14 0 -3.20 32.01 3.73 0 -8.88 14.22 0 0 0 
-8.09 64.28 144.20 -8.48 -0.31 -30.73 -0.87 7.18 -0 6.34 1.07 -0.89 0 16.55 -0 -1.76 8.05 -2.74 0 34.21 -0 0 0.56 0 0 6.29 0 14.36 3.53 33.00 4.06 26.61 -1.12 0.06 -4.56 -3.81 14.17 0 0 -49.17 -5.84 -38.99 26.12 0 0 0 0 -68.45 27.71 0 0 15.08 8.17 38.31 2.29 -0.46 1.83 57.19 34.31 -81.43 5.29 0 0 0 0 0 3.01 0 0 0 0 0 9.37 0.29 2.59 24.22 -1.62 -3.34 4.34 0 0 0 0 0 2.16 0 0 0 0 0 9.47 0.83 0.29 16.96 14.27 7.03 4.77 0 0 0 0 0 2.87 0 0 -0 0 0 8.65 1.01 -1.70 23.79 3.43 14.82 4.54 0 0 0 0 0 2.50 0 0 0 0 0 7.69 0.66 -3.90 21.17 -7.01 16.30 3.21 0 0 0 0 0 1.92 0 0 0 0 0 -4.06 26.61 -1.12 12.58 -3.76 4.08 -14.17 0 0 43.37 26.15 46.81 -26.12 0 0 0 0 81.19 -27.71 0 0 48.04 -50.85 -8.20 -2.29 -0.46 1.83 -57.19 34.31 81.43 -5.29 0 0 0 0 0 -3.01 0 0 0 0 0 -9.37 0.29 2.59 -24.22 -1.62 3.34 -4.34 0 0 0 0 0 -2.16 0 0 -0 0 0 -9.47 0.83 0.29 -16.96 14.27 -7.03 -4.77 0 0 -0 0 0 -2.87 0 0 0 0 0 -8.65 1.01 -1.70 -23.79 3.43 -14.82 -4.54 0 0 0 0 0 -2.50 0 0 -0 0 0 -7.69 0.66 -3.90 -21.17 -7.01 -16.30 -3.21 0 0 -0 0 0 -1.92 0 0 0 0 0 8.73 -0 0 67.77 -48.42 52.25 0 -46.66 0 180 79.39 -180 0 -40.14 0 2.04 6.53 -10.71 0 -8.88 14.22 0 0 0 -8.73 0 -0 13.02 -6.40 24.34 0 -46.66 0 0 18.74 0 0 -40.14 0 -2.72 32.79 2.06 0 -8.88 14.22 0 0 0 
-7.84 64.38 144.31 -8.73 -0.18 -30.64 -0.88 7.18 -0 6.29 1.04 -1.01 0 16.55 -0 -1.77 8.03 -3.04 0 34.21 -0 0 0.56 0 0 6.29 0 14.72 3.18 33.30 4.06 26.61 -1.12 0.52 -4.59 -3.64 14.17 0 0 -49.53 -6.55 -38.69 26.12 0 0 0 0 -68.95 27.71 0 0 14.70 12.19 38.60 2.29 -0.46 1.83 57.19 34.31 -81.43 5.29 0 0 0 0 0 3.01 0 0 0 0 0 9.37 0.29 2.59 24.22 -1.62 -3.34 4.34 0 0 0 0 0 2.16 0 0 0 0 0 9.47 0.83 0.29 16.96 14.27 7.03 4.77 0 0 0 0 0 2.87 0 0 -0 0 0 8.65 1.01 -1.70 23.79 3.43 14.82 4.54 0 0 -0 0 0 2.50 0 0 0 0 0 7.69 0.66 -3.90 21.17 -7.01 16.30 3.21 0 0 0 0 0 1.92 0 0 0 0 0 -4.06 26.61 -1.12 12.63 -3.80 3.91 -14.17 0 0 42.71 28.07 48.09 -26.12 0 0 0 0 83.14 -27.71 0 0 58.35 -58.82 3.23 -2.29 -0.46 1.83 -57.19 34.31 81.43 -5.29 0 0 0 0 0 -3.01 0 0 0 0 0 -9.37 0.29 2.59 -24.22 -1.62 3.34 -4.34 0 0 0 0 0 -2.16 0 0 -0 0 0 -9.47 0.83 0.29 -16.96 14.27 -7.03 -4.77 0 0 0 0 0 -2.87 0 0 0 0 0 -8.65 1.01 -1.70 -23.79 3.43 -14.82 -4.54 0 0 0 0 0 -2.50 0 0 -0 0 0 -7.69 0.66 -3.90 -21.17 -7.01 -16.30 -3.21 0 0 -0 0 0 -1.92 0 0 0 0 0 8.73 -0 0 67.77 -48.86 52.32 0 -46.66 0 180 79.50 -180 0 -40.14 0 2.47 8.10 -11.36 0 -8.88 14.22 0 0 0 -8.73 0 -0 12.01 -6.70 13.87 0 -46.66 0 0 18.66 0 0 -40.14 0 -2.52 31.83 0.66 0 -8.88 14.22 0 0 0 
-7.56 64.55 144.37 -9.10 0.01 -30.45 -0.88 7.18 -0 6.28 1.02 -1.15 0 16.55 -0 -1.75 8.02 -3.41 0 34.21 -0 0 0.56 0 0 6.29 0 15.07 2.77 33.65 4.06 26.61 -1.12 1.01 -4.62 -3.49 14.17 0 0 -49.84 -7.19 -38.44 26.12 0 0 0 0 -69.51 27.71 0 0 14.25 16.01 39.04 2.29 -0.46 1.83 57.19 34.31 -81.43 5.29 0 0 0 0 0 3.01 0 0 0 0 0 9.37 0.29 2.59 24.22 -1.62 -3.34 4.34 0 0 0 0 0 2.16 0 0 0 0 0 9.47 0.83 0.29 16.96 14.27 7.03 4.77 0 0 0 0 0 2.87 0 0 -0 0 0 8.65 1.01 -1.70 23.79 3.43 14.82 4.54 0 0 0 0 0 2.50 0 0 0 0 0 7.69 0.66 -3.90 21.17 -7.01 16.30 3.21 0 0 0 0 0 1.92 0 0 0 0 0 -4.06 26.61 -1.12 13.08 -3.79 3.81 -14.17 0 0 40.77 30.64 49.46 -26.12 0 0 0 0 88.71 -27.71 0 0 64.97 -69.90 18.99 -2.29 -0.46 1.83 -57.19 34.31 81.43 -5.29 0 0 0 0 0 -3.01 0 0 0 0 0 -9.37 0.29 2.59 -24.22 -1.62 3.34 -4.34 0 0 0 0 0 -2.16 0 0 -0 0 0 -9.47 0.83 0.29 -16.96 14.27 -7.03 -4.77 0 0 -0 0 0 -2.87 0 0 0 0 0 -8.65 1.01 -1.70 -23.79 3.43 -14.82 -4.54 0 0 0 0 0 -2.50 0 0 -0 0 0 -7.69 0.66 -3.90 -21.17 -7.01 -16.30 -3.21 0 0 -0 0 0 -1.92 0 0 0 0 0 8.73 -0 0 67.67 -49.38 52.35 0 -46.66 0 180 79.70 -180 0 -40.14 0 2.84 9.57 -11.97 0 -8.88 14.22 0 0 0 -8.73 0 -0 11.78 -6.62 9.14 0 -46.66 0 0 18.12 0 0 -40.14 0 -2.59 27.74 0.16 0 -8.88 14.22 0 0 0 
